<svg xmlns="http://www.w3.org/2000/svg" viewBox="0 0 64 64">
  <defs>
    <radialGradient id="bg" cx="48%" cy="44%" r="58%">
      <stop offset="0%" stop-color="#2b0b69"/>
      <stop offset="48%" stop-color="#13032c"/>
      <stop offset="100%" stop-color="#03020b"/>
    </radialGradient>
    <linearGradient id="vortex" x1="8" y1="52" x2="55" y2="8">
      <stop offset="0%" stop-color="#22d3ee"/>
      <stop offset="46%" stop-color="#8b5cf6"/>
      <stop offset="100%" stop-color="#d946ef"/>
    </linearGradient>
    <filter id="glow" x="-40%" y="-40%" width="180%" height="180%">
      <feGaussianBlur stdDeviation="2.2" result="blur"/>
      <feColorMatrix in="blur" type="matrix" values="0 0 0 0 0.55 0 0 0 0 0.25 0 0 0 0 1 0 0 0 .9 0"/>
      <feMerge><feMergeNode/><feMergeNode in="SourceGraphic"/></feMerge>
    </filter>
  </defs>
  <rect width="64" height="64" rx="14" fill="#05030d"/>
  <circle cx="32" cy="32" r="29" fill="url(#bg)" stroke="#6d5dfc" stroke-width="2"/>
  <g filter="url(#glow)" fill="none" stroke="url(#vortex)" stroke-linecap="round">
    <path d="M54 31c-5-14-20-19-32-12 10-2 21 2 24 12 4 13-9 23-23 17 13 8 34-1 31-17Z" stroke-width="5"/>
    <path d="M13 34c5 13 19 18 31 10-10 3-21-1-24-11-4-13 9-22 22-17-13-7-33 1-29 18Z" stroke-width="4.5" opacity=".95"/>
    <path d="M24 22c9-5 20 0 20 10 0 9-10 14-18 10 9 1 15-4 14-11-1-7-8-11-16-9Z" stroke-width="3.5" opacity=".9"/>
  </g>
  <circle cx="32" cy="32" r="5.4" fill="#06020f" stroke="#a855f7" stroke-width="1.6"/>
</svg>
