<svg xmlns="http://www.w3.org/2000/svg" viewBox="0 0 960 520" fill="none"><defs><linearGradient id="g1" x1="480" y1="25" x2="480" y2="500" gradientUnits="userSpaceOnUse"><stop stop-color="#9A55FF" stop-opacity=".95"/><stop offset="1" stop-color="#5A22C7" stop-opacity=".15"/></linearGradient><radialGradient id="g2" cx="0" cy="0" r="1" gradientTransform="translate(480 325) rotate(90) scale(210 350)" gradientUnits="userSpaceOnUse"><stop stop-color="#A45CFF" stop-opacity=".42"/><stop offset="1" stop-color="#6D2AE4" stop-opacity="0"/></radialGradient></defs><ellipse cx="480" cy="360" rx="340" ry="122" fill="url(#g2)"/><path d="M48 168C182 38 778 38 912 168" stroke="#7B36E9" stroke-opacity=".22" stroke-width="2"/><path d="M18 207C180 64 780 64 942 207" stroke="#A35DFF" stroke-opacity=".12" stroke-width="2"/><circle cx="480" cy="190" r="82" stroke="url(#g1)" stroke-width="7"/><circle cx="480" cy="190" r="58" stroke="#C292FF" stroke-opacity=".34" stroke-width="2"/><path d="M480 131L494 166L529 180L494 194L480 229L466 194L431 180L466 166L480 131Z" fill="#B66EFF" stroke="#E3C7FF" stroke-width="2"/><path d="M401 119L360 170L386 291L430 326L449 246L430 170L401 119Z" fill="#1A1430" stroke="#8760C8" stroke-width="3"/><path d="M559 119L600 170L574 291L530 326L511 246L530 170L559 119Z" fill="#1A1430" stroke="#8760C8" stroke-width="3"/><path d="M423 282L451 354H509L537 282L530 336H430L423 282Z" fill="#24143F" stroke="#9E57FF" stroke-width="3"/><path d="M420 353H540L566 394H394L420 353Z" fill="#17101F" stroke="#7540C6" stroke-width="3"/><path d="M370 394H590L617 426H343L370 394Z" fill="#0D0B13" stroke="#5F358F" stroke-width="2"/><ellipse cx="480" cy="431" rx="210" ry="30" stroke="#7F3FEA" stroke-opacity=".55" stroke-width="3"/><ellipse cx="480" cy="431" rx="155" ry="20" stroke="#B866FF" stroke-opacity=".25" stroke-width="2"/></svg>