<svg xmlns="http://www.w3.org/2000/svg" viewBox="0 0 960 520" fill="none">
  <defs>
    <linearGradient id="metal" x1="355" y1="95" x2="610" y2="370" gradientUnits="userSpaceOnUse">
      <stop stop-color="#FCF8FF"/>
      <stop offset=".11" stop-color="#E9D5FF"/>
      <stop offset=".27" stop-color="#C59AFF"/>
      <stop offset=".46" stop-color="#9147F0"/>
      <stop offset=".68" stop-color="#6324B9"/>
      <stop offset=".86" stop-color="#35105E"/>
      <stop offset="1" stop-color="#160921"/>
    </linearGradient>
    <linearGradient id="metalShade" x1="520" y1="110" x2="405" y2="352" gradientUnits="userSpaceOnUse">
      <stop stop-color="#2F0D4B"/>
      <stop offset=".5" stop-color="#14091F"/>
      <stop offset="1" stop-color="#050408"/>
    </linearGradient>
    <linearGradient id="rim" x1="368" y1="94" x2="592" y2="126" gradientUnits="userSpaceOnUse">
      <stop stop-color="#FFFFFF"/>
      <stop offset=".22" stop-color="#DCC3FF"/>
      <stop offset=".5" stop-color="#8F42E9"/>
      <stop offset=".78" stop-color="#D2A8FF"/>
      <stop offset="1" stop-color="#F7EEFF"/>
    </linearGradient>
    <linearGradient id="base" x1="480" y1="336" x2="480" y2="460" gradientUnits="userSpaceOnUse">
      <stop stop-color="#7E37D5"/>
      <stop offset=".22" stop-color="#4E197F"/>
      <stop offset=".52" stop-color="#20102E"/>
      <stop offset="1" stop-color="#08050D"/>
    </linearGradient>
    <radialGradient id="halo" cx="0" cy="0" r="1" gradientTransform="translate(485 314) rotate(90) scale(202 344)" gradientUnits="userSpaceOnUse">
      <stop stop-color="#AF68FF" stop-opacity=".44"/>
      <stop offset=".34" stop-color="#8536EA" stop-opacity=".24"/>
      <stop offset=".72" stop-color="#5B20B5" stop-opacity=".08"/>
      <stop offset="1" stop-color="#3A0F7E" stop-opacity="0"/>
    </radialGradient>
    <radialGradient id="medal" cx="0" cy="0" r="1" gradientTransform="translate(480 211) rotate(90) scale(68)" gradientUnits="userSpaceOnUse">
      <stop stop-color="#F7EDFF"/>
      <stop offset=".24" stop-color="#D9BAFF"/>
      <stop offset=".58" stop-color="#8C43E7"/>
      <stop offset="1" stop-color="#331053"/>
    </radialGradient>
    <linearGradient id="star" x1="480" y1="157" x2="480" y2="259" gradientUnits="userSpaceOnUse">
      <stop stop-color="#FFFFFF"/>
      <stop offset=".28" stop-color="#EBD9FF"/>
      <stop offset=".58" stop-color="#BC78FF"/>
      <stop offset="1" stop-color="#772ADD"/>
    </linearGradient>
    <filter id="softGlow" x="256" y="40" width="448" height="446" filterUnits="userSpaceOnUse" color-interpolation-filters="sRGB">
      <feGaussianBlur stdDeviation="12" result="blur"/>
      <feColorMatrix in="blur" values="1 0 0 0 .50 0 1 0 0 .18 0 0 1 0 .95 0 0 0 .5 0"/>
      <feBlend in="SourceGraphic"/>
    </filter>
    <filter id="shine" x="365" y="92" width="160" height="240" filterUnits="userSpaceOnUse">
      <feGaussianBlur stdDeviation="3"/>
    </filter>
  </defs>

  <ellipse cx="480" cy="344" rx="360" ry="136" fill="url(#halo)"/>
  <path d="M52 185C202 32 758 32 908 185" stroke="#8E43F2" stroke-opacity=".22" stroke-width="2"/>
  <path d="M18 225C198 58 762 58 942 225" stroke="#B874FF" stroke-opacity=".12" stroke-width="2"/>
  <path d="M154 132C269 58 691 58 806 132" stroke="#C491FF" stroke-opacity=".1" stroke-width="1.5"/>

  <g filter="url(#softGlow)">
    <!-- rear handles -->
    <path d="M382 146C327 142 298 180 304 228C311 287 350 326 414 338L429 291C383 280 359 255 355 219C353 197 364 187 388 188L382 146Z" fill="#2A0C42" stroke="#8B44DC" stroke-width="6"/>
    <path d="M578 146C633 142 662 180 656 228C649 287 610 326 546 338L531 291C577 280 601 255 605 219C607 197 596 187 572 188L578 146Z" fill="#2A0C42" stroke="#8B44DC" stroke-width="6"/>
    <path d="M365 164C330 168 324 190 328 218C333 253 350 276 380 291" stroke="#C08EFF" stroke-opacity=".36" stroke-width="3" stroke-linecap="round"/>
    <path d="M595 164C630 168 636 190 632 218C627 253 610 276 580 291" stroke="#C08EFF" stroke-opacity=".28" stroke-width="3" stroke-linecap="round"/>

    <!-- cup shell -->
    <path d="M374 111H586L567 251C558 319 524 356 480 356C436 356 402 319 393 251L374 111Z" fill="url(#metal)" stroke="#B875FF" stroke-width="6"/>
    <path d="M414 141H546L535 242C529 294 508 325 480 325C452 325 431 294 425 242L414 141Z" fill="url(#metalShade)" stroke="#DAB8FF" stroke-opacity=".34" stroke-width="2"/>

    <!-- upper rim / lip -->
    <path d="M383 113C402 88 558 88 577 113C557 138 403 138 383 113Z" fill="url(#rim)" fill-opacity=".62" stroke="#F5ECFF" stroke-opacity=".76" stroke-width="3"/>
    <ellipse cx="480" cy="113" rx="94" ry="18" fill="#12081B" fill-opacity=".66" stroke="#F4E8FF" stroke-opacity=".48" stroke-width="2"/>
    <ellipse cx="480" cy="113" rx="72" ry="11" stroke="#A85FFF" stroke-opacity=".3" stroke-width="2"/>

    <!-- front medal -->
    <circle cx="480" cy="210" r="74" fill="#100619" fill-opacity=".88" stroke="#C389FF" stroke-opacity=".55" stroke-width="4"/>
    <circle cx="480" cy="210" r="61" fill="url(#medal)" fill-opacity=".38" stroke="#A75DFF" stroke-opacity=".42" stroke-width="2"/>
    <circle cx="480" cy="210" r="46" fill="#14091E" fill-opacity=".72" stroke="#D3A8FF" stroke-opacity=".18"/>
    <path d="M480 156L494 193L533 207L494 222L480 261L466 222L427 207L466 193L480 156Z" fill="url(#star)" stroke="#FBF7FF" stroke-width="2.4"/>
    <circle cx="480" cy="206" r="8" fill="#FFF" fill-opacity=".92"/>
    <text x="480" y="287" text-anchor="middle" fill="#E6D1FF" font-family="Arial, sans-serif" font-size="22" font-weight="900" letter-spacing="4">HNL</text>

    <!-- stem and stepped pedestal -->
    <path d="M449 350H511L523 386H437L449 350Z" fill="url(#base)" stroke="#A25AF0" stroke-width="4"/>
    <path d="M420 382H540L562 414H398L420 382Z" fill="url(#base)" stroke="#7E35CC" stroke-width="3"/>
    <path d="M374 411H586L615 447H345L374 411Z" fill="#0C0712" stroke="#6E2DBA" stroke-width="3"/>
    <path d="M400 419H560" stroke="#C695FF" stroke-opacity=".28" stroke-width="2"/>
    <path d="M389 430H571" stroke="#6E2CB9" stroke-opacity=".36" stroke-width="1.5"/>

    <!-- metallic highlight -->
    <path d="M405 130C414 174 418 229 430 276C440 316 455 335 473 342" stroke="#FFFFFF" stroke-opacity=".3" stroke-width="11" stroke-linecap="round"/>
    <path d="M420 130L431 195" stroke="#FFFFFF" stroke-opacity=".56" stroke-width="3" stroke-linecap="round"/>
    <path d="M550 144C541 190 536 245 522 289" stroke="#CA8CFF" stroke-opacity=".18" stroke-width="5" stroke-linecap="round"/>
  </g>

  <!-- stage rings -->
  <ellipse cx="480" cy="455" rx="232" ry="32" fill="#4A158A" fill-opacity=".12" stroke="#803BE5" stroke-opacity=".66" stroke-width="3"/>
  <ellipse cx="480" cy="455" rx="174" ry="21" stroke="#C487FF" stroke-opacity=".28" stroke-width="2"/>
  <ellipse cx="480" cy="455" rx="108" ry="9" fill="#A856FF" fill-opacity=".15"/>
  <path d="M306 455H654" stroke="#A65EFF" stroke-opacity=".10" stroke-width="1"/>
</svg>
