<svg xmlns="http://www.w3.org/2000/svg" width="154" height="149" viewBox="0 0 154 149">
  <defs>
    <radialGradient id="bg" cx="50%" cy="48%" r="65%">
      <stop offset="0" stop-color="#13072c"/>
      <stop offset="0.42" stop-color="#07030f"/>
      <stop offset="1" stop-color="#020204"/>
    </radialGradient>
    <radialGradient id="core" cx="50%" cy="52%" r="45%">
      <stop offset="0" stop-color="#050008"/>
      <stop offset="0.38" stop-color="#12002b"/>
      <stop offset="0.72" stop-color="#6d28d9"/>
      <stop offset="1" stop-color="#0b001a" stop-opacity="0"/>
    </radialGradient>
    <filter id="glow" x="-30%" y="-30%" width="160%" height="160%"><feGaussianBlur stdDeviation="2.2"/></filter>
  </defs>
  <rect width="154" height="149" rx="8" fill="#050505"/>
  <circle cx="77" cy="74.5" r="69" fill="url(#bg)" stroke="#2e0a63" stroke-width="2"/>
  <circle cx="77" cy="74.5" r="54" fill="url(#core)" opacity="0.95"/>
  <g fill="none" stroke-linecap="round" stroke-linejoin="round">
    <path d="M131 59C99 23 39 29 23 77c22-31 61-38 90-17-35-6-68 9-84 43 27-22 58-25 83-10-25 2-47 15-63 37 39-13 75-34 87-62 2-5 0-7-5-9Z" stroke="#7c3aed" stroke-width="7" opacity=".55" filter="url(#glow)"/>
    <path d="M126 60C97 31 45 31 28 75c23-26 57-31 84-14-32-3-61 10-76 39 25-16 52-19 77-7-23 4-42 15-56 32 34-10 65-28 77-54" stroke="#a855f7" stroke-width="3.2" opacity=".95"/>
    <path d="M112 46C82 30 48 40 35 70c22-18 50-19 74-3-26-3-50 8-63 30 20-11 44-13 66-3" stroke="#c084fc" stroke-width="2.2" opacity=".72"/>
    <path d="M92 35C65 33 42 50 33 77c17-15 41-21 62-13" stroke="#4c1d95" stroke-width="4.4" opacity=".6" filter="url(#glow)"/>
    <path d="M60 115c21-4 44-14 57-34-18 9-37 10-56 4 20-4 36-14 47-28" stroke="#7e22ce" stroke-width="4" opacity=".7" filter="url(#glow)"/>
  </g>
  <circle cx="77" cy="75" r="17" fill="#020204" opacity=".98"/>
  <circle cx="77" cy="75" r="68" fill="none" stroke="#4c1d95" stroke-width="1.4" opacity=".85"/>
</svg>
