<svg xmlns="http://www.w3.org/2000/svg" width="154" height="149" viewBox="0 0 154 149"><defs><radialGradient id="g" cx="50%" cy="46%" r="58%"><stop offset="0" stop-color="#8b5cf6"/><stop offset=".45" stop-color="#27105f"/><stop offset="1" stop-color="#05050a"/></radialGradient><filter id="blur"><feGaussianBlur stdDeviation="2"/></filter></defs><rect width="154" height="149" rx="8" fill="#05050a"/><circle cx="77" cy="74" r="58" fill="url(#g)" stroke="#7c3aed" stroke-width="2"/><path d="M119 68c-24-29-72-20-84 13 17-20 38-27 62-17-29 0-49 15-57 39 15-15 36-22 61-14-20 5-35 16-45 32 27-11 57-22 73-48 2-3 1-4-10-5Z" fill="#c4b5fd" opacity=".86"/><path d="M116 61c-30-23-65-13-82 11 21-13 48-12 68 1-20-3-39 2-57 18 26-8 48-6 67 7-21 0-38 8-50 21 30-6 57-20 70-42 4-7-4-12-16-16Z" fill="#7c3aed" opacity=".52" filter="url(#blur)"/></svg>
