<svg xmlns="http://www.w3.org/2000/svg" viewBox="0 0 64 64" role="img" aria-label="Xbox logo">
  <defs>
    <linearGradient id="xboxBg" x1="0" y1="0" x2="1" y2="1">
      <stop offset="0" stop-color="#0b7a1d"/>
      <stop offset="1" stop-color="#23b14d"/>
    </linearGradient>
  </defs>
  <rect x="2" y="2" width="60" height="60" rx="18" fill="url(#xboxBg)"/>
  <circle cx="32" cy="32" r="19" fill="#fff"/>
  <path d="M20.1 18.6c3.3 0 7.6 2.3 11.9 6.5 4.3-4.2 8.6-6.5 11.9-6.5 3.5 0 5.8 1.8 6.8 4.3-3.1-1-6.7-.8-9.7-.1-2.7.7-5.6 2-8.9 4.3-3.3-2.3-6.2-3.6-8.9-4.3-3-.7-6.6-.9-9.7.1 1-2.5 3.3-4.3 6.8-4.3Z" fill="#107c10"/>
  <path d="M14.6 25.9c3.7-.9 8.5-.2 12.6 1.4 1.8.7 3.4 1.5 4.8 2.4 1.4-.9 3-1.7 4.8-2.4 4.1-1.6 8.9-2.3 12.6-1.4-1.4 6.8-8.1 16.2-17.4 19.8-9.3-3.6-16-13-17.4-19.8Z" fill="#107c10"/>
</svg>
